<?xml version="1.0" encoding="utf-8"?>
<!-- Generator: Adobe Illustrator 27.2.0, SVG Export Plug-In . SVG Version: 6.00 Build 0)  -->
<svg version="1.1" id="Layer_1" xmlns="http://www.w3.org/2000/svg" xmlns:xlink="http://www.w3.org/1999/xlink" x="0px" y="0px"
	 viewBox="0 0 254.4 70.9" style="enable-background:new 0 0 254.4 70.9;" xml:space="preserve">
<style type="text/css">
	.st0{fill:#E94D40;}
	.st1{fill:#0C243C;}
</style>
<g>
	<path class="st0" d="M17.2,10.9c-1.4-1.8-2.6-3.1-4.7-3.1C10.3,7.7,9,9.3,9,11c0,1.4,0.8,2.9,2.3,4c4.8,3.6,8.4,6,8.4,10.2
		c0,3.6-3,6.9-7.2,6.9c-3.5,0-5.9-2-7.8-5.4l2.2-1.3c1.5,2.8,3.4,4.3,5.4,4.3c2.7,0,4.8-2,4.8-4.4c0-2.8-2.6-4.4-8.5-9.2
		c-1.2-1-2.2-3-2.2-4.9c0-3.5,2.8-6,6.2-6c3.1,0,5,1.9,6.7,4.2L17.2,10.9z"/>
	<path class="st0" d="M27.2,15.9c1.9-2.6,4.5-4,7.5-4c5.5,0,9.8,4.5,9.8,9.9c0,5.4-4.2,10-9.8,10c-3,0-5.5-1.2-7.6-3.7v10.2h-2.4
		V12.4h2.4V15.9z M27.1,22c0,4.7,3.6,7.7,7.6,7.7c4.2,0,7.5-3.6,7.5-7.7c0-4.1-3.1-7.7-7.5-7.7C30.3,14.2,27.1,17.6,27.1,22z"/>
	<path class="st0" d="M50.8,22.1c0.1,4.4,3.1,7.5,7.2,7.5c4,0,5.9-2.3,7.3-4.5l2,1.1c-1.9,3.8-4.9,5.7-9.1,5.7
		c-6.3,0-9.9-4.8-9.9-9.9c0-5.2,3.8-10.1,9.8-10.1c5.4,0,9.8,3.9,9.8,10.2H50.8z M65.2,19.9c-1-3.9-3.8-5.7-7.1-5.7
		c-3.4,0-5.9,1.8-7,5.7H65.2z"/>
	<path class="st0" d="M90.9,27.6c-1.9,2.8-5.1,4.3-8.9,4.3c-6.3,0-10.4-4.5-10.4-9.8c0-5.6,4.4-10.2,10.6-10.2c3.6,0,7,1.5,8.7,4.4
		l-2,1.2c-1.7-2.2-4-3.3-6.9-3.3c-4.8,0-8,3.5-8,7.6c0,4.2,3.1,7.8,8.1,7.8c2.8,0,5-1.1,6.8-3.3L90.9,27.6z"/>
	<path class="st0" d="M98.5,6.6c0,1.1-0.9,2-2,2s-2-0.9-2-2c0-1.1,0.9-2,2-2C97.5,4.6,98.5,5.4,98.5,6.6z M95.3,12.4h2.4v19h-2.4
		V12.4z"/>
	<path class="st0" d="M119.3,12.4h2.4v19h-2.4v-3.3c-2.1,2.5-4.7,3.7-7.7,3.7c-5.5,0-9.7-4.6-9.7-10c0-5.4,4.3-9.9,9.8-9.9
		c3.1,0,5.7,1.3,7.6,4V12.4z M104.4,21.9c0,4.1,3.2,7.7,7.5,7.7c3.9,0,7.6-2.9,7.6-7.7c0-4.4-3.3-7.7-7.6-7.7
		C107.5,14.2,104.4,17.8,104.4,21.9z"/>
	<path class="st0" d="M126.8,5.1h2.4v26.3h-2.4V5.1z"/>
	<path class="st0" d="M166.5,12c-2.3-3-5.5-4.4-9.2-4.4c-6.1,0-11.2,4.5-11.2,11.1c0,6.4,4.9,11,11.3,11c3.6,0,6.6-1.5,9-4.3l2,1.5
		c-2.6,3.3-6.5,5.1-11.2,5.1c-8.6,0-13.8-6-13.8-13.6c0-7.6,5.9-13.3,13.8-13.3c4.7,0,8.7,1.9,11.2,5.4L166.5,12z"/>
	<path class="st0" d="M189.9,12.4h2.4v19h-2.4v-3.3c-2.1,2.5-4.7,3.7-7.7,3.7c-5.5,0-9.7-4.6-9.7-10c0-5.4,4.3-9.9,9.8-9.9
		c3.1,0,5.7,1.3,7.6,4V12.4z M175,21.9c0,4.1,3.2,7.7,7.5,7.7c3.9,0,7.6-2.9,7.6-7.7c0-4.4-3.3-7.7-7.6-7.7
		C178.1,14.2,175,17.8,175,21.9z"/>
	<path class="st0" d="M197.8,5.1h2.4v15l8.8-7.7h3.6l-10.4,9.1l11,9.9h-3.5l-9.5-8.6v8.6h-2.4V5.1z"/>
	<path class="st0" d="M217.3,22.1c0.1,4.4,3.1,7.5,7.2,7.5c4,0,5.9-2.3,7.3-4.5l2,1.1c-1.9,3.8-4.9,5.7-9.1,5.7
		c-6.3,0-9.9-4.8-9.9-9.9c0-5.2,3.8-10.1,9.8-10.1c5.4,0,9.8,3.9,9.8,10.2H217.3z M231.8,19.9c-1-3.9-3.8-5.7-7.1-5.7
		c-3.4,0-5.9,1.8-7,5.7H231.8z"/>
	<path class="st0" d="M238.7,27.4c1.2,1.4,2.5,2.1,4,2.1c1.9,0,3.5-1.4,3.5-3.1c0-1.1-0.6-2.1-1.6-2.6c-4.4-2.4-6.6-3.5-6.6-6.8
		c0-3,2.3-5,5.2-5c2.1,0,3.6,1,5.3,2.6l-1.6,1.6c-1.1-1.1-2.3-1.8-3.8-1.8c-1.6,0-2.9,1.1-2.9,2.5c0,1,0.6,2,1.5,2.5
		c4.4,2.5,6.8,3.5,6.8,6.9c0,3-2.3,5.6-5.7,5.6c-2.1,0-4.3-1-5.6-2.7L238.7,27.4z"/>
</g>
<g>
	<path class="st1" d="M77.2,48.9h1.1c1.3-3,2.1-4.7,4-7.9c2.1-3.7,5.4-6.5,7.1-6.5c1.3,0,2.4,0.7,2.4,1.4c0,0.9-0.6,1.7-1.2,1.7
		c-0.4,0-0.7-0.2-0.7-0.6c0-0.4-0.1-0.6-0.6-0.6c-1,0-3,1.4-5.2,5c-1.3,2.2-2.1,3.8-3.9,7.5h5c0.4,0,0.8,0.4,0.8,0.7
		s-0.3,0.6-0.6,0.6c-2,0-4.2,0.2-5.9,0.3c-2,4.5-3.9,10.5-3.9,13.6c0,0.8,0.2,0.8,0.2,1.6c0,0.4-0.4,0.8-0.9,0.8c-0.4,0-1-0.4-1-1.7
		c0-3.6,1.9-10.1,3.6-14.1c-1.1,0-1.4,0-1.4-0.5C76.1,49.6,76.5,48.9,77.2,48.9z"/>
	<path class="st1" d="M90.3,49.7c0,0.4,0,1.4,0.7,1.4c1.8,0,3.6-1.2,4-1.2c0.4,0,0.8,0.3,0.8,0.8c0,0.4-0.6,1-2.1,1.7
		C92.2,53,90.1,53,89.9,53c-0.9,2.7-3,6.2-6.1,6.2c-1.3,0-2.5-0.9-2.5-2.9c0-4.2,3.5-8.1,6.6-8.1C89.6,48.2,90.3,49,90.3,49.7z
		 M83.2,56.4c0,0.8,0.5,1.3,1.1,1.3c1.7,0,4-4,4-5.4c0-0.1-0.7-0.4-0.7-0.9c0-0.4,0.1-0.8,0.1-1c0-0.1,0-0.1-0.1-0.1
		C85.7,50.2,83.2,53.5,83.2,56.4z"/>
	<path class="st1" d="M96.7,48.8c0,0.5-0.6,1.7-0.6,2.1c0,0.1,0,0.1,0.1,0.1c0.2,0,0.3-0.1,0.5-0.4c1.7-1.7,2.9-2.7,4.1-2.7
		c0.8,0,1.6,0.5,1.6,1.6c0,1.4-0.4,2.7-1.6,2.7c-0.4,0-0.8-0.4-0.8-0.8c0-0.4,0.3-1,0.3-1.2c0-0.2-0.1-0.3-0.4-0.3
		c-0.6,0-3.6,2.9-5,5.1c-1,1.6-1.8,4.2-2.2,4.2c-0.4,0-1-0.6-1-1c0-0.5,0.7-2.4,1.4-4.1c0.7-1.7,1.4-3.4,1.6-4.3
		c0.3-1.1,0.6-1.6,1.3-1.6C96.3,48.1,96.7,48.4,96.7,48.8z"/>
	<path class="st1" d="M119.4,48.4c0.7,0,1.2,0.4,1.2,0.9c0,0.6-1.2,2.1-2.1,3.9c-0.5,1-0.8,1.9-0.8,2.5c0,0.6,0.2,1.1,0.6,1.1
		c1.6,0,4.3-2.9,5.9-5c0.5-0.7,0.9-1.1,1.3-1.1s0.6,0.3,0.6,0.6c0,0.4-0.2,0.7-0.7,1.3c-2.1,2.5-5.6,6-7.9,6c-1.4,0-2.1-1-2.1-2.1
		c0-0.5,0.1-1.1,0.1-1.5c0-0.3,0-0.4-0.1-0.4c-0.3,0-1,0.8-2,1.7c-2.1,1.8-3.5,2.7-4.5,2.7c-0.4,0-1.3-0.7-1.3-1.7
		c0-4.6,4.9-9,8.5-9c0.8,0,1.7,1,1.8,1C118.4,49.4,118.7,48.4,119.4,48.4z M109.8,56.4c0,0.3,0.2,0.5,0.5,0.5c0.8,0,6.6-5,6.6-5.8
		c0-0.2-0.8-0.1-0.8-0.6c0-0.3-0.1-0.5-0.5-0.5C113.7,50.1,109.8,54.3,109.8,56.4z"/>
	<path class="st1" d="M133.9,51.9c0.5-0.7,0.9-1.1,1.4-1.1c0.4,0,0.6,0.3,0.6,0.6c0,0.4-0.2,0.7-0.7,1.3c-2.1,2.5-6,6.5-8.5,6.5
		c-1.5,0-3.2-1.2-3.2-3.3c0-3.8,2.9-10.7,5.4-15.1c2.7-4.6,4.7-6.9,7.2-6.9c0.8,0,1.7,0.9,1.7,1.8c0,1.3-0.7,4-3.9,8.1
		c-2.9,3.7-5,5.1-7,6.7c-0.8,1.3-1.4,3.8-1.4,4.8c0,1.3,0.5,2.1,1.5,2.1C128.9,57.5,132.2,54,133.9,51.9z M130.5,41.4
		c-2.4,4.2-2.9,6-3,6.7c0.6-0.3,2.8-2.2,5.2-5.5c2.6-3.6,3.2-5,3.2-6c0-0.4-0.2-0.6-0.7-0.6C134.6,36,132.7,37.3,130.5,41.4z"/>
	<path class="st1" d="M139.1,56.4c0.6-0.6,1-1.2,1.5-1.2c0.4,0,0.6,0.3,0.6,0.6c0,0.4-0.1,0.7-0.7,1.3c-0.8,0.8-2.1,2-4.1,2
		c-1.5,0-3.2-1.2-3.2-3.3c0-3.8,2.9-10.7,5.4-15.1c2.7-4.6,4.7-6.9,7.2-6.9c0.8,0,1.7,0.9,1.7,1.8c0,1.3-0.7,4-3.9,8.1
		c-2.9,3.7-4.5,4.6-6.4,6.4c-1.1,1.1-2,4.1-2,5c0,1.3,0.6,2.1,1.6,2.1C137.7,57.5,138.5,56.9,139.1,56.4z M140.3,41.4
		c-2.4,4.2-2.9,6-3,6.7c0.6-0.3,2.8-2.2,5.2-5.5c2.6-3.6,3.2-5,3.2-6c0-0.4-0.2-0.6-0.7-0.6C144.4,36,142.6,37.3,140.3,41.4z"/>
	<path class="st1" d="M159.1,48.4c0.7,0,1.2,0.4,1.2,0.9c0,0.6-1.2,2.1-2.1,3.9c-0.5,1-0.8,1.9-0.8,2.5c0,0.6,0.2,1.1,0.6,1.1
		c1.6,0,4.3-2.9,5.9-5c0.5-0.7,0.9-1.1,1.3-1.1c0.4,0,0.6,0.3,0.6,0.6c0,0.4-0.2,0.7-0.7,1.3c-2.1,2.5-5.6,6-7.9,6
		c-1.4,0-2.1-1-2.1-2.1c0-0.5,0.1-1.1,0.1-1.5c0-0.3,0-0.4-0.1-0.4c-0.3,0-1,0.8-2,1.7c-2.1,1.8-3.5,2.7-4.5,2.7
		c-0.4,0-1.3-0.7-1.3-1.7c0-4.6,4.9-9,8.5-9c0.8,0,1.7,1,1.8,1C158.1,49.4,158.3,48.4,159.1,48.4z M149.4,56.4
		c0,0.3,0.2,0.5,0.5,0.5c0.8,0,6.6-5,6.6-5.8c0-0.2-0.8-0.1-0.8-0.6c0-0.3-0.1-0.5-0.5-0.5C153.4,50.1,149.4,54.3,149.4,56.4z"/>
	<path class="st1" d="M173.3,51.9c0.5-0.7,0.9-1.1,1.4-1.1c0.4,0,0.6,0.3,0.6,0.6c0,0.4-0.2,0.7-0.7,1.3c-2.1,2.5-6.4,6.4-10.3,6.4
		c-0.9,0-2.6-0.7-2.6-2.7c0-2.9,4.2-8,7.7-8c1,0,2,1,2,1.8c0,1.3-1.3,2.5-2.2,2.5c-0.3,0-0.6-0.1-0.6-0.8c0-0.6,1-0.7,1-1.4
		c0-0.2-0.1-0.4-0.4-0.4c-1.8,0-5.4,3.5-5.4,6c0,0.7,0.3,1.3,1.1,1.3C167.8,57.5,171.7,54,173.3,51.9z"/>
	<path class="st1" d="M182.8,51.9c0.5-0.7,0.9-1.1,1.4-1.1c0.4,0,0.6,0.3,0.6,0.6c0,0.4-0.2,0.7-0.7,1.3c-2.1,2.5-6.4,6.4-10.3,6.4
		c-0.9,0-2.6-0.7-2.6-2.7c0-2.9,4.2-8,7.7-8c1,0,2,1,2,1.8c0,1.3-1.3,2.5-2.2,2.5c-0.3,0-0.6-0.1-0.6-0.8c0-0.6,1-0.7,1-1.4
		c0-0.2-0.1-0.4-0.4-0.4c-1.8,0-5.4,3.5-5.4,6c0,0.7,0.3,1.3,1.1,1.3C177.3,57.5,181.2,54,182.8,51.9z"/>
	<path class="st1" d="M192.2,48.4c0.7,0,1.2,0.4,1.2,0.9c0,0.6-1.2,2.1-2.1,3.9c-0.5,1-0.8,1.9-0.8,2.5c0,0.6,0.2,1.1,0.6,1.1
		c1.6,0,4.3-2.9,5.9-5c0.5-0.7,0.9-1.1,1.3-1.1s0.6,0.3,0.6,0.6c0,0.4-0.2,0.7-0.7,1.3c-2.1,2.5-5.6,6-7.9,6c-1.4,0-2.1-1-2.1-2.1
		c0-0.5,0.1-1.1,0.1-1.5c0-0.3,0-0.4-0.1-0.4c-0.3,0-1,0.8-2,1.7c-2.1,1.8-3.5,2.7-4.5,2.7c-0.4,0-1.3-0.7-1.3-1.7
		c0-4.6,4.9-9,8.5-9c0.8,0,1.7,1,1.8,1C191.2,49.4,191.4,48.4,192.2,48.4z M182.5,56.4c0,0.3,0.2,0.5,0.5,0.5c0.8,0,6.6-5,6.6-5.8
		c0-0.2-0.8-0.1-0.8-0.6c0-0.3-0.1-0.5-0.5-0.5C186.5,50.1,182.5,54.3,182.5,56.4z"/>
	<path class="st1" d="M197.1,52.5c0-2.3,3.4-4.5,5.4-4.5c0.8,0,1.8,0.7,1.8,1.6s-0.6,2.5-1.5,2.5c-0.5,0-0.9-0.3-0.9-0.8
		c0-0.8,0.7-0.9,0.7-1.1c0-0.3-0.3-0.6-0.7-0.6c-0.6,0-2.7,1.2-2.7,2.5c0,1.2,3.2,1.1,3.2,3.9c0,1.5-1.3,3.1-3.9,3.1
		c-1.6,0-2.8-1.1-2.8-2.2c0-0.6,0.4-1.1,1-1.1c0.4,0,0.8,0.2,0.8,0.7c0,0.8,0.4,1.2,1.3,1.2c0.9,0,1.6-0.8,1.6-1.7
		C200.3,54.4,197.1,54.5,197.1,52.5z"/>
	<path class="st1" d="M212.8,51.9c0.5-0.7,0.9-1.1,1.4-1.1c0.4,0,0.6,0.3,0.6,0.6c0,0.4-0.2,0.7-0.7,1.3c-2.1,2.5-6.2,6.3-8.4,6.3
		c-0.8,0-1.8-0.8-1.8-2.3c0-2,2.3-6.3,2.6-7c0.5-0.8,0.9-1.6,1.5-1.6c0.4,0,1,0.3,1,0.8s-0.4,0.9-0.8,1.6c-1,1.7-2.3,4.8-2.3,5.8
		c0,0.4,0.2,0.9,0.8,0.9C208,57.3,211.2,54,212.8,51.9z M213.7,41.4c0,1.1-1.2,1.7-1.7,1.7s-0.8-0.9-0.8-1.6c0-0.6,0.6-1.4,1.5-1.4
		C213.1,40.2,213.7,40.5,213.7,41.4z"/>
	<path class="st1" d="M220.4,49.7c0,0.4,0,1.4,0.7,1.4c1.8,0,3.6-1.2,4-1.2c0.4,0,0.8,0.3,0.8,0.8c0,0.4-0.6,1-2.1,1.7
		c-1.7,0.8-3.7,0.8-3.9,0.8c-0.9,2.7-3,6.2-6.1,6.2c-1.2,0-2.5-0.9-2.5-2.9c0-4.2,3.5-8.1,6.6-8.1C219.6,48.2,220.4,49,220.4,49.7z
		 M213.2,56.4c0,0.8,0.5,1.3,1.1,1.3c1.7,0,4-4,4-5.4c0-0.1-0.7-0.4-0.7-0.9c0-0.4,0.1-0.8,0.1-1c0-0.1,0-0.1-0.1-0.1
		C215.8,50.2,213.2,53.5,213.2,56.4z"/>
	<path class="st1" d="M240.6,51.9c0.5-0.7,0.9-1.1,1.4-1.1c0.4,0,0.6,0.3,0.6,0.6c0,0.4-0.2,0.7-0.7,1.3c-2.1,2.5-5.1,6-7.1,6
		c-2.3,0-2.6-2.4-2.6-4.3c0-0.9,0.3-2,0.3-3c0-0.4-0.1-0.7-0.5-0.7c-1.4,0-5.5,4.6-6.6,6c-0.9,1.3-1.1,2.8-1.7,2.8
		c-0.7,0-1.3-0.2-1.3-0.9c0-0.7,1.8-6,2.6-8.6c0.6-1.9,0.8-2.6,2-2.6c0.2,0,0.7,0.2,0.7,0.7c0,1.2-1.6,4.8-1.6,5.3
		c0,0.1,0.1,0.2,0.2,0.2c0.1,0,4.3-5.2,6.7-5.2c0.9,0,1.6,0.7,1.6,1.7c0,0.9-0.3,3.1-0.3,4.3c0,1.5,0,2.6,1.1,2.6
		C236.5,56.9,239,54,240.6,51.9z"/>
	<path class="st1" d="M240.8,52.5c0-2.3,3.4-4.5,5.4-4.5c0.8,0,1.8,0.7,1.8,1.6s-0.6,2.5-1.5,2.5c-0.5,0-0.9-0.3-0.9-0.8
		c0-0.8,0.7-0.9,0.7-1.1c0-0.3-0.3-0.6-0.7-0.6c-0.6,0-2.7,1.2-2.7,2.5c0,1.2,3.2,1.1,3.2,3.9c0,1.5-1.3,3.1-3.9,3.1
		c-1.6,0-2.8-1.1-2.8-2.2c0-0.6,0.4-1.1,1-1.1c0.4,0,0.8,0.2,0.8,0.7c0,0.8,0.4,1.2,1.3,1.2c0.9,0,1.6-0.8,1.6-1.7
		C244,54.4,240.8,54.5,240.8,52.5z"/>
</g>
</svg>
